# This file uses centimeters as units for non-parametric coordinates.

g default
v 15.956440 7.010879 -5.039972
v 14.126426 24.810130 12.561512
v 14.735500 -22.003778 30.357197
v -5.099632 23.950764 31.492440
v -15.811227 22.625154 10.843827
v -16.653915 -7.216868 29.282352
v 12.382882 23.632116 30.471108
v 7.168683 -22.550699 -5.789402
v 16.140021 -23.336760 16.937395
v 8.979842 -23.576167 31.103545
v -15.203098 -22.356787 -3.935727
v -16.780028 4.746293 0.601468
v -14.084279 -22.307123 30.804374
v 8.872216 -0.302072 -5.584644
v -13.255887 -24.274751 24.283469
v 16.005037 21.901184 27.271130
v -15.844172 20.341056 29.683948
v -14.574266 -3.103967 32.435029
v 15.166128 23.203542 -2.511955
v -15.973077 -22.484706 16.839957
v -12.218978 -23.126807 -5.548230
v -12.789315 23.386548 -3.794096
v -14.325822 2.131532 -4.593616
v 15.399783 -20.174811 -0.411271
v 16.780028 -6.314246 2.392164
v 7.328725 -24.403882 -2.368882
v -13.616229 23.566164 30.682953
v 8.778844 24.355840 -3.340830
v 15.409313 -12.220971 -5.383554
v -15.913267 19.143407 -4.634541
v 14.261328 0.433976 32.078445
v -6.215575 21.999259 -5.254525
v 10.517951 20.732947 -5.338328
v 15.397811 -1.669808 -4.035525
v -12.232288 -24.810130 -3.414033
v 13.121313 -22.607039 -4.114506
vt 0.289666 0.778092
vt 0.412739 0.838853
vt 0.301248 0.900284
vt 0.170336 0.875154
vt 0.049226 0.907203
vt 0.151658 0.782791
vt 0.170057 0.769872
vt 0.243414 0.767098
vt 0.279391 0.763219
vt 0.157951 0.689382
vt 0.266394 0.609101
vt 0.467273 0.757912
vt 0.533768 0.856714
vt 0.530029 0.957917
vt 0.097627 0.590807
vt 0.018546 0.709911
vt 0.018356 0.589609
vt 0.285193 0.883088
vt 0.110001 0.732481
vt 0.017795 0.847244
vt 0.028703 0.773647
vt 0.562881 0.909459
vt 0.121404 0.581471
vt 0.137239 0.672567
vt 0.112911 0.983366
vt 0.293145 0.969494
vt 0.195982 0.977266
vt 0.134038 0.734041
vt 0.436867 0.956708
vt 0.353162 0.962858
vt 0.449485 0.961435
vt 0.367718 0.759311
vt 0.437131 0.848970
vt 0.537037 0.762150
vt 0.558054 0.748146
vt 0.562205 0.822428
vt 0.530421 0.743514
vt 0.016105 0.739992
vt 0.091233 0.765713
vt 0.176304 0.617033
vt 0.444105 0.973057
vt 0.321585 0.978458
vt 0.283589 0.673729
vt 0.430679 0.775568
vt 0.436472 0.753884
vt 0.039221 0.969700
vt 0.555924 0.957095
vt 0.017117 0.934801
vt 0.097107 0.574015
vt 0.149365 0.622101
vt 0.021633 0.886616
vt 0.561994 0.861610
vt 0.171108 0.975652
vt 0.238588 0.601152
vt 0.022709 0.983316
vn -0.999150 0.002224 -0.041163
vn -0.998247 -0.020358 0.055582
vn -0.989014 0.067074 0.131728
vn -0.990444 0.137871 -0.003434
vn 0.546112 -0.007495 0.837679
vn 0.999952 0.004797 0.008570
vn 0.986189 0.131970 0.100074
vn 0.110364 0.331243 0.937069
vn -0.022922 0.761894 0.647296
vn -0.079924 -0.010305 0.996748
vn 0.096569 0.995312 0.005371
vn -0.118383 0.954842 -0.272511
vn -0.141199 0.965197 0.220129
vn -0.023870 0.070852 -0.997201
vn 0.006162 0.009731 -0.999934
vn 0.010023 -0.094633 -0.995462
vn -0.059836 -0.043137 -0.997276
vn -0.208403 -0.975658 0.068258
vn -0.057990 -0.998028 -0.024037
vn 0.049335 -0.998232 -0.033140
vn 0.039762 -0.721768 0.690992
vn 0.917941 0.048127 -0.393788
vn 0.897184 0.429386 -0.103381
vn 0.729399 -0.033655 -0.683260
vn 0.431294 -0.004384 -0.902201
vn 0.438224 -0.769049 -0.465320
vn 0.929862 -0.360142 0.075188
vn 0.922981 -0.317220 0.217894
vn -0.213176 -0.208969 0.954405
vn -0.938215 -0.149090 -0.312290
vn -0.983869 -0.178640 -0.009490
vn -0.585659 0.022657 -0.810241
vn 0.075677 0.111538 -0.990874
vn 0.021760 0.981990 -0.187675
vn -0.774859 0.099534 -0.624248
vn 0.979523 -0.169497 -0.108653
s 1
g polySurface5035
f 12/2/1 6/3/2 17/1/3 5/32/4
f 31/4/5 25/5/6 16/6/7
f 31/4/5 7/7/8 4/8/9 18/18/10
f 2/10/11 22/11/12 27/9/13 4/8/9
f 32/12/14 14/13/15 8/14/16 21/31/17
f 15/16/18 35/17/19 26/15/20 10/19/21
f 4/8/9 7/7/8 2/10/11
f 1/20/22 19/21/23 16/6/7 25/5/6
f 29/22/24 8/14/16 14/13/15 34/52/25
f 36/23/26 9/24/27 26/15/20
f 9/25/27 25/5/6 31/4/5 3/53/28
f 13/26/29 10/27/21 31/4/5 18/18/10
f 10/19/21 26/15/20 9/24/27 3/28/28
f 12/2/1 11/29/30 20/30/31 6/3/2
f 23/33/32 11/29/30 12/2/1
f 33/34/33 19/35/23 1/36/22
f 33/34/33 32/12/14 28/37/34 19/35/23
f 15/16/18 10/19/21 13/38/29
f 13/26/29 6/3/2 20/30/31 15/42/18
f 16/6/7 7/7/8 31/4/5
f 2/39/11 7/7/8 16/6/7 19/21/23
f 5/32/4 17/1/3 27/9/13
f 27/9/13 17/1/3 6/3/2 18/18/10
f 6/3/2 13/26/29 18/18/10
f 28/40/34 22/11/12 2/10/11 19/50/23
f 35/41/19 15/42/18 20/30/31 11/29/30
f 21/31/17 11/29/30 23/33/32 32/12/14
f 5/43/4 27/9/13 22/11/12
f 12/2/1 5/32/4 30/44/35 23/33/32
f 30/44/35 5/32/4 22/45/12
f 25/5/6 9/25/27 24/46/36 29/48/24
f 29/22/24 36/47/26 8/14/16
f 8/49/16 36/23/26 26/15/20 35/17/19
f 27/9/13 18/18/10 4/8/9
f 29/48/24 34/51/25 25/5/6
f 32/12/14 23/33/32 30/44/35 22/45/12
f 10/27/21 3/53/28 31/4/5
f 22/11/12 28/40/34 32/54/14
f 33/34/33 1/36/22 14/13/15 32/12/14
f 25/5/6 34/51/25 1/20/22
f 1/36/22 34/52/25 14/13/15
f 35/41/19 11/29/30 21/31/17 8/14/16
f 36/55/26 29/48/24 24/46/36
f 24/46/36 9/25/27 36/55/26
