# This file uses centimeters as units for non-parametric coordinates.

g default
v -10.098693 -34.764378 26.638148
v -14.067736 29.752664 15.335792
v 12.211954 20.193437 28.308924
v -14.177421 -20.254189 20.576440
v 13.049408 -8.467868 -1.423045
v 10.190016 32.676923 -2.548166
v 11.377000 -33.956252 27.413661
v 14.246320 -6.252229 17.932777
v -10.278769 32.412412 -2.213826
v -13.822265 21.919055 27.366883
v -1.032490 -6.131194 -3.329502
v 3.689036 34.772827 13.467567
v 13.379571 -24.679255 27.752572
v 12.826290 -34.413455 4.694844
v -12.740417 13.811340 28.454527
v 13.636357 -30.744551 16.622310
v -12.286686 -34.074855 5.457654
v 10.211223 33.398277 28.467376
v -8.125556 4.884586 -2.913453
v 13.548818 30.415551 18.470608
v 13.655309 -27.304561 0.182156
v -12.638716 33.184274 3.471600
v 1.895143 -33.736470 -2.536773
v 8.617365 34.253448 -0.270136
v -12.479883 16.630929 -1.825973
v -13.779016 31.750601 17.378861
v -12.098973 32.666534 28.260315
v -12.864888 -33.095509 21.572497
v 13.676344 -1.911491 27.993964
v 8.593970 -32.118312 28.904421
v -11.641492 -33.576542 28.249451
v 10.478943 -34.419773 -1.933627
v 5.751378 20.129501 29.003860
v -13.341876 -27.335315 5.529175
v -10.618166 -34.176452 -1.841473
v 12.958814 3.958049 27.311173
v -12.415669 -7.394576 28.744242
v -12.781792 -23.336716 -1.964750
v 4.668003 -34.772827 28.270598
v 12.478147 32.472035 -1.407466
v 10.972697 -34.352715 8.515618
v -12.655169 5.028989 -0.852259
v 11.098972 -17.657675 29.208457
v -10.924310 -9.611413 -2.267584
v -12.804215 -9.886318 0.130695
v 12.260236 33.972508 16.701671
v -12.512163 -0.724697 -2.574586
v 13.166971 31.536795 27.074065
v -13.895851 -9.955010 26.284451
v 13.770478 17.440492 23.811305
v -14.246356 1.958506 22.036679
v 12.360306 2.456407 -2.760151
v 13.647605 12.626498 28.743514
v 6.968734 -10.460165 -2.877057
v 10.914695 2.353222 29.013012
v 12.181375 -16.123778 -2.399831
v -11.954024 33.704280 15.787288
vt 0.301974 0.328104
vt 0.414854 0.374296
vt 0.391752 0.468798
vt 0.288240 0.314890
vt 0.261910 0.261466
vt 0.300389 0.193837
vt 0.045148 0.540084
vt 0.096547 0.333980
vt 0.146582 0.537105
vt 0.031269 0.379840
vt 0.301872 0.181466
vt 0.288393 0.068328
vt 0.404674 0.079703
vt 0.428889 0.381811
vt 0.474993 0.326101
vt 0.448330 0.452592
vt 0.573079 0.530716
vt 0.474514 0.521192
vt 0.418447 0.538696
vt 0.384294 0.618390
vt 0.304813 0.538320
vt 0.376949 0.183575
vt 0.396906 0.195764
vt 0.570147 0.310185
vt 0.411073 0.182526
vt 0.427774 0.122764
vt 0.306529 0.605653
vt 0.303228 0.671172
vt 0.268437 0.377073
vt 0.162191 0.314204
vt 0.190040 0.222009
vt 0.237687 0.523191
vt 0.157899 0.392664
vt 0.154793 0.453633
vt 0.177964 0.541446
vt 0.248063 0.533723
vt 0.148328 0.186703
vt 0.086256 0.189138
vt 0.132413 0.392106
vt 0.427048 0.601887
vt 0.408207 0.690850
vt 0.314639 0.701730
vt 0.472286 0.194948
vt 0.421688 0.232801
vt 0.410505 0.270030
vt 0.532138 0.172772
vt 0.554462 0.210096
vt 0.057849 0.310778
vt 0.301584 0.438326
vt 0.295046 0.481225
vt 0.271228 0.195220
vt 0.187787 0.185063
vt 0.425975 0.427453
vt 0.155144 0.244040
vt 0.432271 0.524835
vt 0.482560 0.541611
vt 0.573510 0.268537
vt 0.567898 0.169954
vt 0.033169 0.280116
vt 0.043951 0.183177
vt 0.428171 0.698823
vt 0.416629 0.705025
vt 0.427467 0.350890
vt 0.399283 0.024291
vt 0.412085 0.058871
vt 0.423962 0.466740
vt 0.295271 0.029387
vt 0.146771 0.315665
vt 0.032550 0.539391
vt 0.150306 0.362182
vt 0.578013 0.368948
vt 0.026974 0.320850
vt 0.240310 0.547828
vn -0.120303 -0.003034 0.992733
vn 0.025545 0.005134 0.999660
vn -0.004588 0.017458 0.999837
vn -0.249869 0.002777 0.968276
vn -0.280005 -0.093127 0.955471
vn -0.996426 -0.009620 0.083921
vn -0.998143 -0.046758 0.039054
vn -0.964758 -0.252374 0.074494
vn -0.126795 0.427883 -0.894896
vn 0.057350 0.136441 -0.988987
vn -0.006296 0.000294 -0.999980
vn -0.046682 0.019533 -0.998719
vn 0.146856 0.005117 -0.989145
vn 0.071687 -0.011198 -0.997364
vn -0.061238 -0.998120 0.002564
vn -0.396134 -0.917224 -0.042175
vn 0.135811 -0.990711 -0.006901
vn 0.011020 -0.995618 0.092860
vn 0.977347 -0.021526 0.210544
vn 0.999662 0.004719 -0.025561
vn 0.997384 0.014078 0.070901
vn 0.742963 0.006502 0.669301
vn 0.990511 0.084729 -0.108208
vn 0.998176 0.047467 -0.037292
vn 0.989920 0.007903 -0.141405
vn -0.155019 0.601444 0.783731
vn 0.023136 0.626000 0.779480
vn -0.016947 0.999541 0.025133
vn -0.149659 0.986975 0.059013
vn 0.010236 -0.045665 0.998904
vn 0.042598 -0.011824 0.999022
vn 0.993458 -0.114150 0.003274
vn 0.557931 -0.718711 0.414931
vn 0.575674 -0.815614 -0.058081
vn -0.688425 0.710079 -0.147848
vn -0.996345 -0.056965 -0.063645
vn -0.999983 -0.005533 -0.002074
vn -0.995576 0.002276 -0.093928
vn -0.685362 -0.029040 -0.727624
vn -0.998325 0.038365 -0.043301
vn -0.985965 -0.001146 -0.166949
vn -0.917955 0.009451 -0.396572
vn -0.986504 0.158109 0.042550
vn -0.012505 -0.060444 -0.998093
vn -0.225184 -0.559186 -0.797874
vn 0.404871 0.914255 0.014747
vn 0.051364 0.989128 -0.137799
vn 0.967807 -0.052099 0.246242
vn 0.990528 -0.034011 -0.133031
vn 0.260443 -0.752915 -0.604390
vn -0.988880 0.031384 0.145370
vn 0.933668 0.001022 0.358137
vn 0.642519 0.035462 0.765449
vn 0.803280 0.155541 0.574933
vn 0.273702 -0.039029 -0.961022
vn -0.287820 -0.017831 -0.957518
vn -0.356324 -0.034777 -0.933715
s 1
g polySurface5034
f 37/1/1 55/2/2 33/3/3 15/49/4
f 31/6/5 49/4/6 4/5/7 28/51/8
f 9/9/9 6/7/10 11/8/11 19/39/12
f 11/8/11 6/7/10 52/10/13 54/48/14
f 1/11/15 17/12/16 41/13/17 39/22/18
f 36/14/19 8/15/20 50/16/21 53/53/22
f 40/17/23 20/18/24 8/15/20 5/24/25
f 27/21/26 18/19/27 12/20/28 57/27/29
f 37/1/1 31/6/5 30/23/30 43/45/31
f 16/26/32 7/25/33 41/13/17 14/65/34
f 57/27/29 12/20/28 22/28/35
f 34/31/36 51/29/37 45/30/38 38/54/39
f 2/32/40 42/33/41 45/30/38 51/29/37
f 25/34/42 42/33/41 2/32/40 22/35/35
f 22/35/35 2/32/40 26/36/43 57/73/29
f 49/4/6 31/6/5 37/1/1
f 11/8/11 23/38/44 35/37/45 38/54/39
f 46/40/46 24/41/47 12/20/28 18/19/27
f 12/20/28 24/41/47 9/42/9 22/28/35
f 16/43/32 13/44/48 7/25/33
f 37/1/1 43/45/31 55/2/2
f 21/47/49 16/43/32 14/46/34 32/58/50
f 23/38/44 11/8/11 54/48/14
f 15/49/4 10/50/51 51/29/37 37/1/1
f 27/21/26 15/49/4 33/3/3 18/19/27
f 8/15/20 16/43/32 21/47/49 5/24/25
f 13/44/48 16/43/32 8/15/20 29/63/52
f 28/51/8 17/52/16 1/11/15 31/6/5
f 51/29/37 34/31/36 4/5/7 49/4/6
f 33/3/3 55/2/2 53/53/22 3/66/53
f 34/31/36 17/52/16 28/51/8 4/5/7
f 50/16/21 8/15/20 20/18/24
f 48/55/54 46/56/46 18/19/27
f 21/47/49 32/58/50 56/57/55 5/24/25
f 25/34/42 9/9/9 19/39/12 42/33/41
f 56/59/55 32/60/50 23/38/44 54/48/14
f 23/38/44 32/60/50 35/37/45
f 24/41/47 46/40/46 40/61/23 6/62/10
f 9/42/9 24/41/47 6/62/10
f 9/9/9 25/34/42 22/35/35
f 10/50/51 26/36/43 2/32/40 51/29/37
f 15/49/4 27/21/26 10/50/51
f 26/36/43 10/50/51 27/21/26
f 43/45/31 13/44/48 29/63/52 55/2/2
f 30/23/30 7/25/33 13/44/48 43/45/31
f 30/23/30 31/6/5 39/22/18 7/25/33
f 32/64/50 14/65/34 17/12/16 35/67/45
f 18/19/27 33/3/3 3/66/53 48/55/54
f 17/52/16 34/31/36 38/54/39 35/37/45
f 29/63/52 8/15/20 36/14/19
f 44/68/56 38/54/39 45/30/38
f 44/68/56 11/8/11 38/54/39
f 41/13/17 7/25/33 39/22/18
f 40/69/23 52/10/13 6/7/10
f 17/12/16 14/65/34 41/13/17
f 47/70/57 42/33/41 19/39/12
f 47/70/57 19/39/12 11/8/11 44/68/56
f 46/56/46 48/55/54 20/18/24 40/17/23
f 45/30/38 42/33/41 47/70/57 44/68/56
f 50/16/21 20/18/24 48/55/54 3/66/53
f 37/1/1 51/29/37 49/4/6
f 40/17/23 5/24/25 52/71/13
f 53/53/22 50/16/21 3/66/53
f 54/48/14 52/10/13 5/72/25 56/59/55
f 55/2/2 29/63/52 36/14/19 53/53/22
f 57/73/29 26/36/43 27/21/26
f 1/11/15 39/22/18 31/6/5
