# This file uses centimeters as units for non-parametric coordinates.

g default
v -18.874220 -15.601964 -1.618062
v 17.031481 17.312593 37.991654
v -0.130992 20.003563 28.092278
v 17.376324 -19.262974 18.025704
v 16.990767 -10.564197 38.038536
v -16.985539 14.771498 -3.141785
v 3.730215 20.191495 5.963069
v 11.797829 -3.263094 -4.355652
v -12.847241 -2.618055 39.282883
v 2.823370 -19.950806 -0.052933
v 17.785881 17.511718 21.163056
v 16.549478 -17.005470 -3.384842
v -18.476017 19.201633 4.203485
v -18.550024 17.333622 37.568496
v -17.719380 -17.435049 33.452180
v 3.758013 -20.191516 27.257254
v -3.132370 18.808682 -3.075407
v 18.874220 -9.108826 17.717412
v -16.813831 -18.516038 -2.919822
v -18.187306 -2.733070 37.561234
v -16.773966 -7.908399 -3.833180
v 15.913020 -17.870930 38.319506
v 0.814109 19.539439 38.841821
v 17.197692 16.510619 -2.977787
v 13.617417 15.618276 -4.181980
v -8.703671 -18.160403 38.193047
v 17.744410 18.804009 8.409479
vt 0.704911 0.125325
vt 0.806853 0.116133
vt 0.695856 0.207167
vt 0.903306 0.178683
vt 0.875636 0.060689
vt 0.983346 0.126910
vt 0.975164 0.343332
vt 0.838049 0.355558
vt 0.978610 0.205544
vt 0.901148 0.200787
vt 0.841010 0.205413
vt 0.867547 0.673367
vt 0.870580 0.591450
vt 0.972438 0.603484
vt 0.867354 0.368876
vt 0.889094 0.484828
vt 0.837251 0.506219
vt 0.769939 0.061565
vt 0.847878 0.064437
vt 0.952414 0.368492
vt 0.961419 0.489630
vt 0.201573 0.162957
vt 0.120210 0.087537
vt 0.198785 0.076037
vt 0.973363 0.672867
vt 0.971737 0.421078
vt 0.191326 0.020804
vt 0.966366 0.504666
vt 0.233454 0.024036
vt 0.975754 0.551086
vt 0.686927 0.069036
vt 0.079118 0.156844
vt 0.083600 0.082440
vt 0.849315 0.163476
vt 0.230634 0.104135
vt 0.831425 0.594176
vt 0.701699 0.221424
vt 0.827578 0.366197
vt 0.839825 0.677409
vt 0.981451 0.061312
vt 0.144661 0.018074
vt 0.081807 0.020372
vn 0.020591 -0.992386 -0.121430
vn -0.019944 -0.998750 0.045829
vn -0.142822 -0.712272 -0.687219
vn 0.006760 0.547876 0.836532
vn -0.062975 -0.017696 0.997858
vn 0.620608 -0.028854 0.783590
vn 0.609792 0.270039 0.745140
vn -0.899971 0.359585 0.246476
vn -0.917152 0.397156 -0.033155
vn -0.998220 -0.052927 -0.027492
vn -0.966024 -0.014671 0.258035
vn -0.540912 -0.823247 0.172278
vn 0.999743 -0.022590 -0.001779
vn 0.829274 0.554943 0.065900
vn -0.244017 -0.009635 -0.969723
vn 0.021311 -0.013594 -0.999680
vn 0.727863 -0.267034 -0.631592
vn 0.483720 -0.874968 0.021124
vn 0.396491 -0.563150 0.725022
vn -0.293295 0.099619 -0.950818
vn 0.023416 0.057388 -0.998077
vn -0.017370 0.999194 0.036187
vn 0.044426 0.997365 -0.057356
vn -0.017166 0.954852 -0.296585
vn 0.918960 0.254640 -0.301115
vn 0.850057 0.521457 -0.074063
vn -0.124812 -0.811585 0.570746
s 1
g polySurface5031
f 10/1/1 16/2/2 19/3/3
f 23/6/4 9/4/5 5/5/6 2/40/7
f 14/9/8 13/7/9 1/8/10 20/10/11
f 20/10/11 1/8/10 15/11/12
f 5/12/6 18/13/13 11/14/14 2/25/7
f 21/15/15 8/16/16 12/17/17 19/38/3
f 4/18/18 22/19/19 16/2/2 10/1/1
f 21/15/15 6/20/20 25/21/21 8/16/16
f 13/22/9 3/23/22 7/24/23 17/35/24
f 25/21/21 6/20/20 17/26/24 24/28/25
f 27/27/26 7/24/23 3/23/22 11/41/14
f 9/4/5 23/6/4 14/9/8 20/10/11
f 18/13/13 12/17/17 24/28/25 27/30/26
f 7/24/23 27/27/26 24/29/25 17/35/24
f 19/3/3 12/31/17 10/1/1
f 12/31/17 4/18/18 10/1/1
f 1/8/10 13/7/9 6/20/20 21/15/15
f 13/7/9 17/26/24 6/20/20
f 14/32/8 23/33/4 3/23/22 13/22/9
f 9/4/5 20/10/11 15/11/12 26/34/27
f 15/11/12 19/3/3 16/2/2 26/34/27
f 26/34/27 16/2/2 22/19/19
f 4/36/18 18/13/13 5/12/6 22/39/19
f 1/37/10 19/3/3 15/11/12
f 1/8/10 21/15/15 19/38/3
f 26/34/27 22/19/19 5/5/6 9/4/5
f 2/42/7 11/41/14 3/23/22 23/33/4
f 24/28/25 12/17/17 8/16/16 25/21/21
f 4/36/18 12/17/17 18/13/13
f 18/13/13 27/30/26 11/14/14
